<?xml version="1.0" encoding="UTF-8"?>
<svg id="Layer_1" xmlns="http://www.w3.org/2000/svg" viewBox="0 0 1018 389.34">
  <defs>
    <style>
      .cls-1, .cls-2, .cls-3 {
        fill: #fff;
      }

      .cls-2 {
        font-size: 96.94px;
      }

      .cls-2, .cls-3 {
        font-family: OpenSans-Regular, 'Open Sans';
      }

      .cls-3 {
        font-size: 96.81px;
      }
    </style>
  </defs>
  <g>
    <path class="cls-1" d="M46.19,229.96c-15.07-6.2-26.42-14.34-34.06-24.43-7.64-10.08-11.69-21.1-12.13-33.07,0-1.77.72-3.38,2.16-4.82,1.44-1.44,3.16-2.16,5.15-2.16h41.87c2.66,0,4.82.5,6.48,1.5,1.66,1,3.38,2.49,5.15,4.49,2.88,5.76,7.53,10.53,13.96,14.29,6.42,3.77,14.95,5.65,25.59,5.65,12.63,0,22.27-1.99,28.91-5.98,6.65-3.99,9.97-9.41,9.97-16.28,0-4.87-1.72-8.86-5.15-11.96-3.44-3.1-8.81-5.87-16.12-8.31-7.31-2.43-18.17-5.2-32.57-8.31-26.59-5.53-46.47-13.68-59.65-24.43-13.18-10.74-19.77-26.09-19.77-46.03,0-13.51,3.76-25.59,11.3-36.22,7.53-10.63,18.28-18.94,32.24-24.92C63.47,2.99,79.76,0,98.37,0c19.27,0,36,3.32,50.18,9.97,14.18,6.65,24.98,15.01,32.4,25.09,7.42,10.08,11.35,20,11.8,29.74,0,1.99-.66,3.66-1.99,4.98-1.33,1.33-2.99,1.99-4.99,1.99h-43.87c-2.66,0-4.82-.44-6.48-1.33-1.66-.88-3.16-2.33-4.49-4.32-1.33-5.09-4.93-9.41-10.8-12.96-5.87-3.54-13.13-5.32-21.77-5.32-9.97,0-17.61,1.78-22.93,5.32-5.32,3.55-7.98,8.75-7.98,15.62,0,4.65,1.5,8.53,4.49,11.63,2.99,3.11,7.86,5.93,14.62,8.47,6.76,2.55,16.45,5.15,29.08,7.81,20.6,3.77,37.05,8.47,49.35,14.12,12.3,5.65,21.32,12.96,27.08,21.93,5.76,8.97,8.64,20.22,8.64,33.73,0,14.85-4.27,27.75-12.79,38.71-8.53,10.97-20.39,19.39-35.56,25.26-15.18,5.87-32.51,8.81-52.01,8.81-21.05,0-39.1-3.11-54.17-9.31Z"/>
    <path class="cls-1" d="M223.16,237.18c-1.39-1.39-2.08-3.01-2.08-4.86V51.66c0-2.04.69-3.7,2.08-5,1.39-1.29,3.01-1.94,4.86-1.94h37.24c2.04,0,3.75.65,5.14,1.94,1.39,1.3,2.08,2.97,2.08,5v180.66c0,2.04-.69,3.71-2.08,5-1.39,1.3-3.11,1.95-5.14,1.95h-37.24c-1.85,0-3.47-.69-4.86-2.08Z"/>
    <path class="cls-1" d="M301.13,237.18c-1.39-1.39-2.08-3.01-2.08-4.86V51.66c0-2.04.69-3.7,2.08-5,1.39-1.29,3.01-1.94,4.86-1.94h30.02c4.45,0,7.69,2.04,9.73,6.11l48.92,87.55,48.92-87.55c2.04-4.07,5.28-6.11,9.73-6.11h29.74c2.04,0,3.75.65,5.14,1.94,1.39,1.3,2.09,2.97,2.09,5v180.66c0,2.04-.69,3.71-2.09,5-1.39,1.3-3.11,1.95-5.14,1.95h-33.07c-2.04,0-3.75-.65-5.14-1.95-1.39-1.29-2.09-2.96-2.09-5v-104.23s-31.13,58.09-31.13,58.09c-2.41,4.26-5.65,6.39-9.73,6.39h-14.45c-2.41,0-4.36-.56-5.84-1.67-1.48-1.11-2.78-2.68-3.89-4.72l-31.41-58.09v104.23c0,1.85-.65,3.48-1.95,4.86-1.3,1.39-2.97,2.08-5,2.08h-33.35c-1.85,0-3.47-.69-4.86-2.08Z"/>
    <path class="cls-1" d="M540.54,220.09c-14.73-12.78-22.1-32.05-22.1-57.81V51.66c0-2.04.69-3.7,2.08-5,1.39-1.29,3.01-1.94,4.86-1.94h35.85c2.04,0,3.75.65,5.14,1.94,1.39,1.3,2.08,2.97,2.08,5v110.34c0,12.05,2.82,21.08,8.48,27.1,5.65,6.02,13.85,9.03,24.6,9.03,10.56,0,18.71-3.06,24.46-9.17,5.74-6.12,8.62-15.1,8.62-26.96V51.66c0-2.04.69-3.7,2.08-5,1.39-1.29,3.01-1.94,4.86-1.94h36.13c2.04,0,3.7.65,5,1.94,1.29,1.3,1.95,2.97,1.95,5v110.62c0,25.76-7.37,45.03-22.1,57.81-14.73,12.78-34.98,19.18-60.73,19.18-26.13,0-46.55-6.39-61.29-19.18Z"/>
    <path class="cls-1" d="M814.79,219.66c-3.33-5.12-5.89-10.53-7.68-16.22-1.14-3.62-4.41-6.14-8.2-6.14h-32.75s0-145.64,0-145.64c0-2.04-.65-3.7-1.95-5-1.3-1.29-2.97-1.94-5-1.94h-36.69c-1.85,0-3.47.65-4.86,1.94-1.39,1.3-2.08,2.97-2.08,5v180.66c0,1.85.69,3.48,2.08,4.86,1.3,1.3,2.8,1.96,4.51,2.05l-.03.03h100.26c3.91,0,5.77-4.81,2.87-7.43-4.09-3.68-7.58-7.74-10.47-12.18Z"/>
    <path class="cls-1" d="M866.46,229.63c-14.62-6.42-25.54-15.17-32.73-26.25-7.2-11.08-10.8-23.48-10.8-37.22,0-11.74,2.93-22.32,8.81-31.74,5.87-9.41,13.68-16.78,23.43-22.1-7.76-5.1-13.68-11.52-17.78-19.28-4.1-7.75-6.15-16.62-6.15-26.58,0-12.63,3.27-23.98,9.8-34.06,6.53-10.08,16.45-18,29.74-23.76C884.08,2.88,900.58,0,920.3,0c29.02,0,51.01,6.1,65.96,18.28,14.95,12.19,22.43,28.14,22.43,47.85,0,20.16-7.76,35.56-23.26,46.19,9.97,4.88,17.89,12.08,23.76,21.6,5.87,9.53,8.81,20.38,8.81,32.57,0,13.74-3.66,26.09-10.97,37.05-7.31,10.97-18.33,19.66-33.06,26.09-14.74,6.42-32.62,9.64-53.67,9.64-21.27,0-39.21-3.21-53.83-9.64ZM947.22,188.42c7.09-5.54,10.63-12.96,10.63-22.27,0-9.31-3.55-16.67-10.63-22.1-7.09-5.43-16.07-8.14-26.92-8.14-10.86,0-19.89,2.72-27.08,8.14-7.2,5.43-10.8,12.79-10.8,22.1,0,9.31,3.6,16.73,10.8,22.27,7.2,5.54,16.23,8.31,27.08,8.31,10.85,0,19.82-2.77,26.92-8.31ZM944.23,88.06c6.2-4.87,9.3-11.18,9.3-18.94,0-7.98-3.11-14.4-9.3-19.27-6.21-4.87-14.18-7.31-23.93-7.31-9.75,0-17.73,2.44-23.93,7.31-6.21,4.88-9.31,11.3-9.31,19.27,0,7.98,3.1,14.4,9.31,19.27,6.2,4.88,14.18,7.31,23.93,7.31,9.75-.22,17.72-2.77,23.93-7.64Z"/>
  </g>
  <g>
    <path class="cls-1" d="M589,290.67c0,4.67-3.76,8.38-8.53,8.38s-8.59-3.71-8.59-8.38,3.81-8.33,8.64-8.33c4.73,0,8.48,3.66,8.48,8.33ZM574.01,290.67c0,3.71,2.8,6.66,6.5,6.66,3.6.05,6.35-2.95,6.35-6.6s-2.75-6.71-6.45-6.71c-3.61,0-6.41,2.99-6.41,6.65ZM579.14,294.98h-1.93v-8.33c.76-.1,1.83-.25,3.2-.25,1.58,0,2.29.25,2.84.66.51.36.86.96.86,1.78,0,1.02-.76,1.68-1.73,1.98v.1c.82.25,1.22.91,1.47,2.04.25,1.27.46,1.73.61,2.04h-2.03c-.26-.31-.4-1.02-.66-2.04-.15-.86-.66-1.27-1.73-1.27h-.91v3.29h0ZM579.2,290.31h.91c1.07,0,1.93-.36,1.93-1.22,0-.76-.56-1.27-1.78-1.27-.51,0-.86.05-1.07.1v2.38Z"/>
    <g>
      <polygon class="cls-1" points="562.93 282.27 487.51 282.27 562.93 319.04 562.93 282.27"/>
      <polygon class="cls-1" points="562.93 370.86 487.51 370.86 562.93 334.09 562.93 370.86"/>
      <polygon class="cls-1" points="540.88 326.7 474.35 294.74 474.35 358.57 540.88 326.7"/>
    </g>
    <g>
      <path class="cls-1" d="M86,292.92h12.9l20.98,32.61,20.98-32.61h12.9v68.96h-12.11v-49.46l-21.78,32.51h-.4l-21.57-32.32v49.26h-11.92v-68.95Z"/>
      <path class="cls-1" d="M169.34,290.56h12.81v11.33h-12.81v-11.33ZM169.84,309.87h11.92v52.02h-11.92v-52.02Z"/>
      <path class="cls-1" d="M197.32,309.87h11.92v7.98c3.35-4.82,8.18-9.06,16.26-9.06,11.72,0,18.52,7.88,18.52,19.9v33.2h-11.92v-29.56c0-8.08-4.04-12.71-11.13-12.71s-11.72,4.83-11.72,12.9v29.36h-11.92v-52.02h0Z"/>
      <path class="cls-1" d="M258.6,290.56h12.81v11.33h-12.81v-11.33ZM259.1,309.87h11.92v52.02h-11.92v-52.02Z"/>
      <path class="cls-1" d="M289.73,347.5v-27.39h-6.6v-10.25h6.6v-14.28h11.92v14.28h13.99v10.25h-13.99v25.51c0,4.63,2.36,6.5,6.41,6.5,2.66,0,5.03-.59,7.39-1.77v9.75c-2.96,1.67-6.2,2.66-10.73,2.66-8.78,0-14.98-3.84-14.98-15.27Z"/>
      <path class="cls-1" d="M324.31,346.91v-.2c0-11.23,8.77-16.75,21.48-16.75,5.81,0,9.95.89,13.99,2.17v-1.28c0-7.39-4.53-11.33-12.9-11.33-5.81,0-10.15,1.28-14.88,3.25l-3.15-9.36c5.72-2.56,11.33-4.24,19.6-4.24,7.78,0,13.59,2.07,17.24,5.81,3.84,3.74,5.62,9.26,5.62,16.06v30.84h-11.63v-6.5c-3.55,4.24-8.96,7.58-16.95,7.58-9.76,0-18.42-5.61-18.42-16.05ZM359.98,343.16v-3.55c-3.05-1.19-7.1-2.07-11.82-2.07-7.68,0-12.21,3.25-12.21,8.67v.2c0,5.03,4.43,7.88,10.15,7.88,7.88,0,13.89-4.53,13.89-11.13Z"/>
      <path class="cls-1" d="M395.54,353.81v8.08h-11.92v-71.92h11.92v28.57c3.84-5.42,9.26-9.75,17.73-9.75,12.21,0,24.13,9.65,24.13,26.99v.2c0,17.24-11.82,26.99-24.13,26.99-8.67,0-14.09-4.33-17.73-9.15ZM425.29,335.98v-.2c0-10.05-6.8-16.65-14.88-16.65s-15.17,6.7-15.17,16.65v.2c0,9.95,7.1,16.65,15.17,16.65,8.18,0,14.88-6.4,14.88-16.64Z"/>
    </g>
  </g>
  <text class="cls-2" transform="translate(0 363.07)"><tspan x="0" y="0">A</tspan></text>
  <text class="cls-3" transform="translate(592.31 361.97) scale(.99 1)"><tspan x="0" y="0">Company</tspan></text>
</svg>